<svg width="81" height="65" viewBox="0 0 81 65" fill="none" xmlns="http://www.w3.org/2000/svg">
<path fill-rule="evenodd" clip-rule="evenodd" d="M12.15 65C8.92762 65 5.83722 63.716 3.55865 61.4304C1.28009 59.1448 0 56.0448 0 52.8125V12.1875C0 8.95517 1.28009 5.85524 3.55865 3.56964C5.83722 1.28404 8.92762 0 12.15 0H68.85C72.0724 0 75.1628 1.28404 77.4414 3.56964C79.7199 5.85524 81 8.95517 81 12.1875V52.8125C81 56.0448 79.7199 59.1448 77.4414 61.4304C75.1628 63.716 72.0724 65 68.85 65H12.15ZM22.7813 17.1438C22.3687 16.7904 21.8896 16.5238 21.3723 16.3597C20.8551 16.1956 20.3102 16.1375 19.7701 16.1887C19.23 16.2399 18.7057 16.3995 18.2283 16.6579C17.7508 16.9162 17.33 17.2682 16.9908 17.6929C16.6515 18.1175 16.4008 18.6062 16.2535 19.13C16.1062 19.6537 16.0653 20.2018 16.1332 20.7416C16.2011 21.2815 16.3764 21.8022 16.6488 22.2729C16.9212 22.7435 17.285 23.1544 17.7188 23.4812L32.9062 35.6728C35.0612 37.4035 37.7395 38.3465 40.5 38.3465C43.2605 38.3465 45.9388 37.4035 48.0938 35.6728L63.2813 23.4853C63.6966 23.1519 64.0425 22.7396 64.299 22.2721C64.5556 21.8046 64.7178 21.291 64.7765 20.7606C64.8352 20.2302 64.7891 19.6934 64.641 19.1809C64.4928 18.6684 64.2455 18.1901 63.9131 17.7734C63.5806 17.3568 63.1697 17.0099 62.7036 16.7525C62.2375 16.4952 61.7255 16.3324 61.1968 16.2736C60.668 16.2147 60.1328 16.2609 59.6219 16.4095C59.1109 16.5582 58.6341 16.8063 58.2188 17.1397L43.0313 29.3272C42.3129 29.9041 41.4202 30.2184 40.5 30.2184C39.5798 30.2184 38.6871 29.9041 37.9688 29.3272L22.7813 17.1397V17.1438Z" fill="black"/>
</svg>
