<svg width="69" height="79" viewBox="0 0 69 79" fill="none" xmlns="http://www.w3.org/2000/svg">
<path fill-rule="evenodd" clip-rule="evenodd" d="M4.92857 9.875C4.92857 7.25599 5.96709 4.74424 7.81566 2.89232C9.66423 1.0404 12.1714 0 14.7857 0H54.2143C56.8286 0 59.3358 1.0404 61.1843 2.89232C63.0329 4.74424 64.0714 7.25599 64.0714 9.875V69.125C65.3786 69.125 66.6322 69.6452 67.5565 70.5712C68.4807 71.4971 69 72.753 69 74.0625C69 75.372 68.4807 76.6279 67.5565 77.5538C66.6322 78.4798 65.3786 79 64.0714 79H49.2857C47.9786 79 46.725 78.4798 45.8007 77.5538C44.8764 76.6279 44.3571 75.372 44.3571 74.0625V64.1875C44.3571 62.878 43.8379 61.6221 42.9136 60.6962C41.9893 59.7702 40.7357 59.25 39.4286 59.25H29.5714C28.2643 59.25 27.0107 59.7702 26.0864 60.6962C25.1621 61.6221 24.6429 62.878 24.6429 64.1875V74.0625C24.6429 75.372 24.1236 76.6279 23.1993 77.5538C22.275 78.4798 21.0214 79 19.7143 79H4.92857C3.62143 79 2.36783 78.4798 1.44354 77.5538C0.519258 76.6279 0 75.372 0 74.0625C0 72.753 0.519258 71.4971 1.44354 70.5712C2.36783 69.6452 3.62143 69.125 4.92857 69.125V9.875ZM19.7143 14.8125H29.5714V24.6875H19.7143V14.8125ZM29.5714 34.5625H19.7143V44.4375H29.5714V34.5625ZM39.4286 14.8125H49.2857V24.6875H39.4286V14.8125ZM49.2857 34.5625H39.4286V44.4375H49.2857V34.5625Z" fill="black"/>
</svg>
