<svg width="69" height="65" viewBox="0 0 69 65" fill="none" xmlns="http://www.w3.org/2000/svg">
<path d="M47.9636 41.8735L46.2499 43.589C46.2499 43.589 42.171 47.6637 31.0416 36.5378C19.9122 25.412 23.9911 21.3373 23.9911 21.3373L25.0682 20.2542C27.731 17.5958 27.9833 13.3242 25.6595 10.2038L20.914 3.8305C18.0365 -0.0321268 12.4812 -0.543356 9.18573 2.75123L3.27263 8.65878C1.64182 10.2947 0.54959 12.4078 0.681411 14.7557C1.02038 20.7654 3.72458 33.6901 18.8049 48.7695C34.8004 64.7577 49.8091 65.3939 55.9444 64.8183C57.8878 64.6365 59.5751 63.6443 60.9347 62.2811L66.2829 56.934C69.8986 53.3251 68.8817 47.1335 64.2566 44.6077L57.063 40.6731C54.0273 39.0182 50.3364 39.503 47.9636 41.8735Z" fill="black"/>
</svg>
