<svg width="72" height="72" viewBox="0 0 72 72" fill="none" xmlns="http://www.w3.org/2000/svg">
<path d="M36 0C16.128 0 0 16.128 0 36C0 55.872 16.128 72 36 72C55.872 72 72 55.872 72 36C72 16.128 55.872 0 36 0ZM52.704 24.48C52.164 30.168 49.824 43.992 48.636 50.364C48.132 53.064 47.124 53.964 46.188 54.072C44.1 54.252 42.516 52.704 40.5 51.372C37.332 49.284 35.532 47.988 32.472 45.972C28.908 43.632 31.212 42.336 33.264 40.248C33.804 39.708 43.02 31.32 43.2 30.564C43.225 30.4495 43.2217 30.3306 43.1903 30.2177C43.1589 30.1048 43.1005 30.0012 43.02 29.916C42.804 29.736 42.516 29.808 42.264 29.844C41.94 29.916 36.9 33.264 27.072 39.888C25.632 40.86 24.336 41.364 23.184 41.328C21.888 41.292 19.44 40.608 17.604 39.996C15.336 39.276 13.572 38.88 13.716 37.62C13.788 36.972 14.688 36.324 16.38 35.64C26.892 31.068 33.876 28.044 37.368 26.604C47.376 22.428 49.428 21.708 50.796 21.708C51.084 21.708 51.768 21.78 52.2 22.14C52.56 22.428 52.668 22.824 52.704 23.112C52.668 23.328 52.74 23.976 52.704 24.48Z" fill="black"/>
</svg>
