<svg width="1920" height="3359" viewBox="0 0 1920 3359" fill="none" xmlns="http://www.w3.org/2000/svg">
<g clip-path="url(#clip0_284_39)">
<mask id="mask0_284_39" style="mask-type:luminance" maskUnits="userSpaceOnUse" x="0" y="0" width="1920" height="3799">
<path d="M1920 0H0V3799H1920V0Z" fill="white"/>
</mask>
<g mask="url(#mask0_284_39)">
<path d="M1920 0H0V3799H1920V0Z" fill="white"/>
<path opacity="0.9" d="M0 0H1920V1677H0V0Z" fill="#275DE9"/>
<path d="M1920 717H0V1646H1920V717Z" fill="url(#paint0_linear_284_39)"/>
<path fill-rule="evenodd" clip-rule="evenodd" d="M0 1254.33L39.6 1189.06C80.4 1123.78 159.6 993.222 240 1019.33C320.4 1045.44 399.6 1228.22 480 1267.39C560.4 1306.56 639.6 1202.11 720 1215.17C800.4 1228.22 879.6 1358.78 960 1384.89C1040.4 1411 1119.6 1332.67 1200 1241.28C1280.4 1149.89 1359.6 1045.44 1440 1058.5C1520.4 1071.56 1599.6 1202.11 1680 1202.11C1760.4 1202.11 1839.6 1071.56 1880.4 1006.28L1920 941V1646H1880.4C1839.6 1646 1760.4 1646 1680 1646C1599.6 1646 1520.4 1646 1440 1646C1359.6 1646 1280.4 1646 1200 1646C1119.6 1646 1040.4 1646 960 1646C879.6 1646 800.4 1646 720 1646C639.6 1646 560.4 1646 480 1646C399.6 1646 320.4 1646 240 1646C159.6 1646 80.4 1646 39.6 1646H0V1254.33Z" fill="url(#paint1_linear_284_39)"/>
<path d="M1920 2127H0V4329H1920V2127Z" fill="#D4D4D4"/>
<path d="M1920 1645H0V2022H1920V1645Z" fill="#EDEDED"/>
<path fill-rule="evenodd" clip-rule="evenodd" d="M1921 1952.58L1897 1942.89C1871.4 1933.21 1821.8 1913.83 1773.8 1865.38C1724.2 1816.93 1674.6 1739.41 1625 1749.1C1577 1758.79 1527.4 1855.69 1477.8 1875.07C1428.2 1894.45 1380.2 1836.31 1330.6 1816.93C1281 1797.55 1231.4 1816.93 1181.8 1778.17C1133.8 1739.41 1084.2 1642.51 1034.6 1632.82C985 1623.13 937 1700.65 887.4 1778.17C837.8 1855.69 788.2 1933.21 740.2 1933.21C690.6 1933.21 641 1855.69 591.4 1875.07C541.8 1894.45 493.8 2010.72 444.2 2001.03C394.6 1991.34 345 1855.69 297 1807.24C247.4 1758.79 197.8 1797.55 148.2 1816.93C100.2 1836.31 50.6 1836.31 25 1836.31H1V2127H25C50.6 2127 100.2 2127 148.2 2127C197.8 2127 247.4 2127 297 2127C345 2127 394.6 2127 444.2 2127C493.8 2127 541.8 2127 591.4 2127C641 2127 690.6 2127 740.2 2127C788.2 2127 837.8 2127 887.4 2127C937 2127 985 2127 1034.6 2127C1084.2 2127 1133.8 2127 1181.8 2127C1231.4 2127 1281 2127 1330.6 2127C1380.2 2127 1428.2 2127 1477.8 2127C1527.4 2127 1577 2127 1625 2127C1674.6 2127 1724.2 2127 1773.8 2127C1821.8 2127 1871.4 2127 1897 2127H1921V1952.58Z" fill="#D5D5D5"/>
</g>
</g>
<defs>
<linearGradient id="paint0_linear_284_39" x1="960" y1="717" x2="960" y2="1646" gradientUnits="userSpaceOnUse">
<stop stop-color="#FAFAFA" stop-opacity="0"/>
<stop offset="1" stop-color="#FAFAFA"/>
</linearGradient>
<linearGradient id="paint1_linear_284_39" x1="960" y1="659.5" x2="960" y2="1646" gradientUnits="userSpaceOnUse">
<stop stop-color="#EDEDED" stop-opacity="0.48"/>
<stop offset="1" stop-color="#EDEDED"/>
</linearGradient>
<clipPath id="clip0_284_39">
<rect width="1920" height="3359" fill="white"/>
</clipPath>
</defs>
</svg>
