<svg width="273" height="112" viewBox="0 0 273 112" fill="none" xmlns="http://www.w3.org/2000/svg">
<rect width="273" height="112" rx="56" fill="#0084FE"/>
<rect width="273" height="112" rx="56" fill="url(#paint0_linear_325_57)"/>
<path d="M21.218 83V31.2H48.894C56.0473 31.2 61.326 32.4827 64.73 35.048C68.134 37.564 69.836 40.7953 69.836 44.742C69.836 47.3567 69.096 49.7 67.616 51.772C66.1853 53.7947 64.0887 55.398 61.326 56.582C58.5633 57.766 55.1593 58.358 51.114 58.358L52.594 54.362C56.6393 54.362 60.1173 54.9293 63.028 56.064C65.988 57.1987 68.2573 58.8513 69.836 61.022C71.464 63.1433 72.278 65.7087 72.278 68.718C72.278 73.2073 70.4033 76.71 66.654 79.226C62.954 81.742 57.5273 83 50.374 83H21.218ZM38.386 70.79H48.894C50.818 70.79 52.2487 70.4447 53.186 69.754C54.1727 69.0633 54.666 68.052 54.666 66.72C54.666 65.388 54.1727 64.3767 53.186 63.686C52.2487 62.9953 50.818 62.65 48.894 62.65H37.202V51.106H46.526C48.4993 51.106 49.93 50.7853 50.818 50.144C51.7553 49.4533 52.224 48.4913 52.224 47.258C52.224 45.9753 51.7553 45.0133 50.818 44.372C49.93 43.7307 48.4993 43.41 46.526 43.41H38.386V70.79ZM78.4524 83V31.2H95.9164V69.458H119.3V83H78.4524ZM124.124 83V31.2H141.588V83H124.124ZM149.995 83V31.2H164.351L190.695 62.724H184.035V31.2H201.055V83H186.699L160.355 51.476H167.015V83H149.995ZM228.784 84.184C224.443 84.184 220.249 83.6907 216.204 82.704C212.159 81.7173 208.829 80.4347 206.214 78.856L211.838 66.128C214.305 67.5587 217.043 68.718 220.052 69.606C223.111 70.4447 226.071 70.864 228.932 70.864C230.609 70.864 231.917 70.7653 232.854 70.568C233.841 70.3213 234.556 70.0007 235 69.606C235.444 69.162 235.666 68.644 235.666 68.052C235.666 67.1147 235.148 66.3747 234.112 65.832C233.076 65.2893 231.695 64.8453 229.968 64.5C228.291 64.1053 226.441 63.7107 224.418 63.316C222.395 62.872 220.348 62.3047 218.276 61.614C216.253 60.9233 214.379 60.0107 212.652 58.876C210.975 57.7413 209.618 56.2613 208.582 54.436C207.546 52.5613 207.028 50.2427 207.028 47.48C207.028 44.2733 207.916 41.3627 209.692 38.748C211.517 36.084 214.206 33.9627 217.758 32.384C221.359 30.8053 225.824 30.016 231.152 30.016C234.655 30.016 238.108 30.386 241.512 31.126C244.916 31.866 247.975 33.0007 250.688 34.53L245.434 47.184C242.869 45.9013 240.377 44.9393 237.96 44.298C235.592 43.6567 233.273 43.336 231.004 43.336C229.327 43.336 227.995 43.484 227.008 43.78C226.021 44.076 225.306 44.4707 224.862 44.964C224.467 45.4573 224.27 46 224.27 46.592C224.27 47.48 224.788 48.1953 225.824 48.738C226.86 49.2313 228.217 49.6507 229.894 49.996C231.621 50.3413 233.495 50.7113 235.518 51.106C237.59 51.5007 239.637 52.0433 241.66 52.734C243.683 53.4247 245.533 54.3373 247.21 55.472C248.937 56.6067 250.318 58.0867 251.354 59.912C252.39 61.7373 252.908 64.0067 252.908 66.72C252.908 69.8773 251.995 72.788 250.17 75.452C248.394 78.0667 245.73 80.188 242.178 81.816C238.626 83.3947 234.161 84.184 228.784 84.184Z" fill="white"/>
<defs>
<linearGradient id="paint0_linear_325_57" x1="0" y1="0" x2="277.847" y2="13.6989" gradientUnits="userSpaceOnUse">
<stop stop-color="#3266EC"/>
<stop offset="0.963542" stop-color="#759CFF"/>
</linearGradient>
</defs>
</svg>
