<svg width="102" height="24" viewBox="0 0 102 24" fill="none" xmlns="http://www.w3.org/2000/svg">
<path d="M0.824 23V0.599998H12.792C15.8853 0.599998 18.168 1.15467 19.64 2.264C21.112 3.352 21.848 4.74933 21.848 6.456C21.848 7.58667 21.528 8.6 20.888 9.496C20.2693 10.3707 19.3627 11.064 18.168 11.576C16.9733 12.088 15.5013 12.344 13.752 12.344L14.392 10.616C16.1413 10.616 17.6453 10.8613 18.904 11.352C20.184 11.8427 21.1653 12.5573 21.848 13.496C22.552 14.4133 22.904 15.5227 22.904 16.824C22.904 18.7653 22.0933 20.28 20.472 21.368C18.872 22.456 16.5253 23 13.432 23H0.824ZM8.248 17.72H12.792C13.624 17.72 14.2427 17.5707 14.648 17.272C15.0747 16.9733 15.288 16.536 15.288 15.96C15.288 15.384 15.0747 14.9467 14.648 14.648C14.2427 14.3493 13.624 14.2 12.792 14.2H7.736V9.208H11.768C12.6213 9.208 13.24 9.06933 13.624 8.792C14.0293 8.49333 14.232 8.07733 14.232 7.544C14.232 6.98933 14.0293 6.57333 13.624 6.296C13.24 6.01867 12.6213 5.88 11.768 5.88H8.248V17.72ZM25.574 23V0.599998H33.126V17.144H43.238V23H25.574ZM45.324 23V0.599998H52.876V23H45.324ZM56.5115 23V0.599998H62.7195L74.1115 14.232H71.2315V0.599998H78.5915V23H72.3835L60.9915 9.368H63.8715V23H56.5115ZM90.5823 23.512C88.7049 23.512 86.8916 23.2987 85.1423 22.872C83.3929 22.4453 81.9529 21.8907 80.8223 21.208L83.2543 15.704C84.3209 16.3227 85.5049 16.824 86.8063 17.208C88.1289 17.5707 89.4089 17.752 90.6463 17.752C91.3716 17.752 91.9369 17.7093 92.3423 17.624C92.7689 17.5173 93.0783 17.3787 93.2703 17.208C93.4623 17.016 93.5583 16.792 93.5583 16.536C93.5583 16.1307 93.3343 15.8107 92.8863 15.576C92.4383 15.3413 91.8409 15.1493 91.0943 15C90.3689 14.8293 89.5689 14.6587 88.6943 14.488C87.8196 14.296 86.9343 14.0507 86.0383 13.752C85.1636 13.4533 84.3529 13.0587 83.6063 12.568C82.8809 12.0773 82.2943 11.4373 81.8463 10.648C81.3983 9.83733 81.1743 8.83467 81.1743 7.64C81.1743 6.25333 81.5583 4.99467 82.3263 3.864C83.1156 2.712 84.2783 1.79467 85.8143 1.112C87.3716 0.429333 89.3023 0.0879993 91.6063 0.0879993C93.1209 0.0879993 94.6143 0.247999 96.0863 0.567999C97.5583 0.887999 98.8809 1.37867 100.054 2.04L97.7823 7.512C96.6729 6.95733 95.5956 6.54133 94.5503 6.264C93.5263 5.98667 92.5236 5.848 91.5423 5.848C90.8169 5.848 90.2409 5.912 89.8142 6.04C89.3876 6.168 89.0783 6.33867 88.8863 6.552C88.7156 6.76533 88.6302 7 88.6302 7.256C88.6302 7.64 88.8543 7.94933 89.3023 8.184C89.7503 8.39733 90.3369 8.57867 91.0623 8.728C91.8089 8.87733 92.6196 9.03733 93.4943 9.208C94.3903 9.37867 95.2756 9.61333 96.1503 9.912C97.0249 10.2107 97.8249 10.6053 98.5503 11.096C99.2969 11.5867 99.8943 12.2267 100.342 13.016C100.79 13.8053 101.014 14.7867 101.014 15.96C101.014 17.3253 100.62 18.584 99.8303 19.736C99.0623 20.8667 97.9103 21.784 96.3743 22.488C94.8383 23.1707 92.9076 23.512 90.5823 23.512Z" fill="white"/>
</svg>
