<svg width="288" height="75" viewBox="0 0 288 75" fill="none" xmlns="http://www.w3.org/2000/svg">
<path d="M45.508 0H8.33328C3.73094 0 0 3.73094 0 8.33328C0 12.9356 3.73093 16.6666 8.33328 16.6666H31.1509C36.9038 16.6666 41.5675 21.3302 41.5675 27.0832C41.5675 32.8361 36.9038 37.4998 31.1509 37.4998H18.7499C8.39461 37.4998 0 45.8944 0 56.2497C0 66.605 8.39462 74.9996 18.7499 74.9996H66.508H83.1053C90.0088 74.9996 95.6052 69.4032 95.6052 62.4997C95.6052 55.5962 90.0088 49.9997 83.1053 49.9997H81.0566C73.0216 49.9997 66.508 43.4861 66.508 35.4511V21C66.508 9.40202 57.106 0 45.508 0Z" fill="white"/>
<path d="M189.601 0.000456838H98.0317C86.7392 0.000456838 77.5849 9.15479 77.5849 20.4472V26.3454C77.5849 34.3804 84.0985 40.894 92.1335 40.894C100.169 40.894 106.682 47.4077 106.682 55.4426V57.947C106.682 67.3651 114.317 75 123.735 75H189.601C201.199 75 210.601 65.598 210.601 54V21.0005C210.601 9.40248 201.199 0.000456838 189.601 0.000456838Z" fill="white"/>
<path d="M205.283 16.9359V7.86334H254.483C256.988 7.86334 259.019 9.8943 259.019 12.3996C259.019 14.9049 256.988 16.9359 254.483 16.9359H205.283Z" fill="white"/>
<path d="M205.283 33.2664V24.7987H271.691C274.029 24.7987 275.924 26.6943 275.924 29.0326C275.924 31.3708 274.029 33.2664 271.691 33.2664H205.283Z" fill="white"/>
<path d="M205.283 50.2018V41.7341H238.483C240.821 41.7341 242.717 43.6297 242.717 45.968C242.717 48.3063 240.821 50.2018 238.483 50.2018H205.283Z" fill="white"/>
<path d="M205.283 67.1372V58.0646H283.464C285.969 58.0646 288 60.0956 288 62.6009C288 65.1062 285.969 67.1372 283.464 67.1372H205.283Z" fill="white"/>
</svg>
